<?xml version="1.0" encoding="UTF-8"?> <!-- Creator: CorelDRAW X8 --> <svg xmlns="http://www.w3.org/2000/svg" xmlns:xlink="http://www.w3.org/1999/xlink" xml:space="preserve" width="339.769mm" height="111.132mm" version="1.1" style="shape-rendering:geometricPrecision; text-rendering:geometricPrecision; image-rendering:optimizeQuality; fill-rule:evenodd; clip-rule:evenodd" viewBox="0 0 3552 1162"> <defs> <style type="text/css"> <![CDATA[ .fil1 {fill:black} .fil2 {fill:#FEFEFE} .fil0 {fill:black;fill-rule:nonzero} ]]> </style> </defs> <g id="Warstwa_x0020_1"> <metadata id="CorelCorpID_0Corel-Layer"></metadata> <g id="_1928381747520"> <path class="fil0" d="M1369 444l0 -349 95 0c25,0 48,5 69,14 21,9 40,21 56,37 16,16 28,34 37,55 9,21 14,44 14,69 0,24 -5,47 -14,68 -8,21 -21,40 -37,55 -16,16 -34,29 -56,37 -21,9 -44,14 -69,14l-95 0zm68 -62l20 0c15,0 30,-2 43,-8 14,-6 25,-14 35,-24 10,-10 18,-22 23,-35 6,-14 8,-29 8,-46 0,-16 -2,-31 -8,-44 -5,-14 -13,-26 -23,-36 -10,-10 -21,-18 -35,-24 -13,-6 -28,-8 -43,-8l-20 0 0 225zm272 62l0 -349 193 0 0 60 -125 0 0 84 120 0 0 60 -120 0 0 85 125 0 0 60 -193 0zm379 0l-146 -349 77 0 96 246 96 -246 77 0 -146 349 -54 0zm341 6c-16,0 -31,-2 -44,-5 -14,-4 -26,-8 -37,-14 -11,-5 -20,-11 -28,-16 -7,-6 -14,-11 -18,-16l35 -56c5,4 10,9 17,14 6,5 13,9 21,14 8,5 17,8 26,11 10,3 20,5 30,5 10,0 19,-2 26,-5 8,-3 14,-7 18,-13 4,-7 7,-14 7,-23 0,-9 -2,-16 -6,-22 -3,-5 -8,-11 -15,-15 -7,-5 -15,-10 -25,-14 -10,-5 -21,-10 -34,-15 -10,-5 -18,-9 -27,-15 -8,-5 -16,-12 -23,-19 -6,-7 -11,-15 -15,-24 -4,-9 -6,-19 -6,-31 0,-13 2,-26 8,-38 5,-12 13,-23 23,-33 10,-9 21,-17 35,-22 14,-6 29,-9 46,-9 13,0 25,2 38,5 13,4 24,8 35,13 11,6 21,12 28,18l-28 54c-6,-5 -13,-10 -21,-14 -7,-4 -16,-8 -24,-10 -9,-3 -18,-4 -26,-4 -10,0 -19,2 -26,5 -7,4 -12,9 -16,14 -4,6 -6,13 -6,20 0,6 2,11 4,15 3,4 6,8 11,11 4,3 10,6 16,8 6,3 13,6 21,9 16,7 31,14 44,21 13,6 25,14 34,22 9,8 17,18 22,29 5,11 7,24 7,39 0,22 -5,41 -16,57 -10,16 -25,28 -44,37 -19,8 -41,12 -67,12zm407 -63l-230 -97 0 -43 230 -98 0 53 -161 66 161 66 0 53zm35 107l174 -413 55 0 -174 413 -55 0zm264 -107l0 -53 162 -66 -162 -66 0 -53 231 98 0 43 -231 97zm-1766 687l0 -348 68 0 0 144 130 0 0 -144 68 0 0 348 -68 0 0 -144 -130 0 0 144 -68 0zm488 7c-44,0 -77,-11 -99,-33 -22,-22 -33,-54 -33,-97l0 -225 68 0 0 205c0,30 5,51 15,64 10,12 26,19 49,19 23,0 39,-7 49,-19 10,-13 15,-34 15,-64l0 -205 69 0 0 225c0,43 -12,75 -34,97 -22,22 -55,33 -99,33zm222 -7l0 -348 68 0 150 234 0 -234 68 0 0 348 -68 0 -150 -234 0 234 -68 0zm410 0l0 -287 -88 0 0 -61 245 0 0 61 -89 0 0 287 -68 0zm212 0l0 -348 68 0 0 348 -68 0zm164 0l0 -348 68 0 150 234 0 -234 68 0 0 348 -68 0 -150 -234 0 234 -68 0zm527 7c-24,0 -47,-5 -67,-14 -21,-9 -39,-22 -54,-38 -16,-16 -28,-36 -37,-57 -8,-22 -13,-46 -13,-72 0,-24 4,-47 12,-69 9,-22 20,-41 36,-58 15,-16 34,-29 55,-39 22,-9 46,-14 73,-14 15,0 30,2 46,5 15,3 30,8 44,15 14,6 27,14 39,24l-32 53c-13,-12 -27,-21 -45,-27 -17,-6 -34,-9 -51,-9 -17,0 -31,3 -44,9 -13,5 -24,14 -32,24 -9,11 -16,23 -20,37 -5,14 -7,30 -7,46 0,18 3,35 8,50 5,14 12,27 21,38 9,11 20,19 32,25 12,5 25,8 39,8 11,0 22,-2 33,-5 10,-4 19,-9 28,-16 8,-7 14,-15 19,-24 5,-9 7,-19 7,-30l0 -5 -91 0 0 -53 161 0 0 53c0,21 -5,40 -13,58 -9,17 -21,32 -36,45 -16,13 -33,23 -52,30 -19,7 -39,10 -59,10z"></path> <path class="fil1" d="M135 0l892 0c74,0 135,61 135,135l0 75 -1162 0 0 -75c0,-74 61,-135 135,-135zm1027 292l0 735c0,74 -61,135 -135,135l-892 0c-74,0 -135,-61 -135,-135l0 -735 1162 0z"></path> <path class="fil2" d="M440 84l58 0c15,0 27,12 27,27l0 15c0,14 -12,26 -27,26l-58 0c-15,0 -27,-12 -27,-26l0 -15c0,-15 12,-27 27,-27zm420 531c117,5 212,99 219,216l35 0 0 24 -35 0c-5,119 -100,215 -219,221l0 39 -23 0 0 -39c-119,-6 -214,-102 -219,-221l-40 0 0 -24 40 0c7,-117 101,-211 219,-216l0 -39 23 0 0 39zm152 216c-6,-80 -71,-145 -152,-150l0 76 -23 0 0 -76c-81,5 -146,70 -153,150l75 0 0 24 -75 0c5,82 70,149 153,154l0 -75 23 0 0 75c82,-5 148,-72 153,-154l-81 0 0 -24 80 0zm17 24c-5,91 -77,165 -169,171l0 22c104,-6 187,-89 192,-193l-23 0zm22 -24c-6,-102 -89,-183 -191,-189l0 22c90,6 162,77 169,167l22 0zm-406 24c5,104 88,187 192,193l0 -22c-92,-6 -165,-80 -169,-171l-23 0zm23 -24c7,-90 79,-161 169,-167l0 -22c-103,6 -185,87 -192,189l23 0zm-506 -6l292 0c12,0 23,11 23,24l0 0c0,12 -11,23 -23,23l-292 0c-13,0 -24,-11 -24,-23l0 0c0,-13 11,-24 24,-24zm-70 -455l854 0c13,0 23,10 23,23l0 0c0,13 -10,23 -23,23l-854 0c-13,0 -23,-10 -23,-23l0 0c0,-13 10,-23 23,-23zm92 151l587 0c13,0 23,11 23,24l0 0c0,12 -10,23 -23,23l-587 0c-13,0 -24,-11 -24,-23l0 0c0,-13 11,-24 24,-24zm-92 152l401 0c13,0 24,11 24,24l0 0c0,12 -11,23 -24,23l-401 0c-13,0 -23,-11 -23,-23l0 0c0,-13 10,-24 23,-24zm59 -589l58 0c14,0 26,12 26,27l0 15c0,14 -12,26 -26,26l-58 0c-15,0 -27,-12 -27,-26l0 -15c0,-15 12,-27 27,-27zm144 0l58 0c15,0 27,12 27,27l0 15c0,14 -12,26 -27,26l-58 0c-14,0 -26,-12 -26,-26l0 -15c0,-15 12,-27 26,-27z"></path> </g> </g> </svg> 